<svg xmlns="http://www.w3.org/2000/svg" viewBox="0 0 1200 800" width="1200" height="800" xmlns:c2pa="http://c2pa.org/manifest"><metadata><c2pa:manifest>AAAWgmp1bWIAAAAeanVtZGMycGEAEQAQgAAAqgA4m3EDYzJwYQAAABZcanVtYgAAAEdqdW1kYzJtYQARABCAAACqADibcQN1cm46YzJwYTo5MTBjZjRhMS1hNzE4LTRhNWMtYWUwZC02ZDIyY2RlZDMxNWMAAAADl2p1bWIAAAApanVtZGMyYXMAEQAQgAAAqgA4m3EDYzJwYS5hc3NlcnRpb25zAAAAALxqdW1iAAAARGp1bWRjYm9yABEAEIAAAKoAOJtxE2MycGEuaW5ncmVkaWVudC52MwAAAAAYYzJzaOfMMxAQVxx/sRr5NjbPnX0AAABwY2JvcqNpZGM6Zm9ybWF0bWltYWdlL3N2Zyt4bWxqaW5zdGFuY2VJRHgseG1wOmlpZDpiMGVmZWNhNi1mYWZmLTQ3NzYtOTE2Yy05NWExMDQzOGNmNjNscmVsYXRpb25zaGlwaHBhcmVudE9mAAAB4mp1bWIAAABBanVtZGNib3IAEQAQgAAAqgA4m3ETYzJwYS5hY3Rpb25zLnYyAAAAABhjMnNo1yC31GedRUwBx32A59O9ZwAAAZljYm9yomdhY3Rpb25zgqJmYWN0aW9ua2MycGEub3BlbmVkanBhcmFtZXRlcnOha2luZ3JlZGllbnRzgaJjdXJseC1zZWxmI2p1bWJmPWMycGEuYXNzZXJ0aW9ucy9jMnBhLmluZ3JlZGllbnQudjNkaGFzaFggrkAoelaoDmfX5e/vQBZtiwQJLll0c1fK/i508jgFPyGkZmFjdGlvbngdY29tLmFudGhyb3BpYy5jbGF1ZGUucHJvdmlkZWRqcGFyYW1ldGVyc6F4H2NvbS5hbnRocm9waWMub3JpZ2luLWNvbmZpZGVuY2VndW5rbm93bmtkZXNjcmlwdGlvbnhmQ2xhdWRlIHByb3ZpZGVkIHRoaXMgZmlsZSBhdCB0aGUgcmVxdWVzdCBvZiBhIHVzZXIgYW5kIG1heSBoYXZlIGNyZWF0ZWQgb3IgbW9kaWZpZWQgdGhlIGZpbGUgY29udGVudHMubXNvZnR3YXJlQWdlbnShZG5hbWVmQ2xhdWRlcmFsbEFjdGlvbnNJbmNsdWRlZPUAAADIanVtYgAAAEBqdW1kY2JvcgARABCAAACqADibcRNjMnBhLmhhc2guZGF0YQAAAAAYYzJzaHMb1uxTcKbokTe9aU0nSq4AAACAY2JvcqVjYWxnZnNoYTI1NmNwYWRNAAAAAAAAAAAAAAAAAGRoYXNoWCAEllJXRyV/8mZx4auvRSvj9zVF3Nn/fDKtfNfPV10rI2RuYW1lbmp1bWJmIG1hbmlmZXN0amV4Y2x1c2lvbnOBomVzdGFydBiYZmxlbmd0aBkeBAAAAj5qdW1iAAAAJ2p1bWRjMmNsABEAEIAAAKoAOJtxA2MycGEuY2xhaW0udjIAAAACD2Nib3KlY2FsZ2ZzaGEyNTZpc2lnbmF0dXJleE1zZWxmI2p1bWJmPS9jMnBhL3VybjpjMnBhOjkxMGNmNGExLWE3MTgtNGE1Yy1hZTBkLTZkMjJjZGVkMzE1Yy9jMnBhLnNpZ25hdHVyZWppbnN0YW5jZUlEeCx4bXA6aWlkOmYyYTU5NTM0LTU4NzktNDc1ZS05ZDhmLTE3NDI3YTllNTQwYnJjcmVhdGVkX2Fzc2VydGlvbnODomN1cmx4LXNlbGYjanVtYmY9YzJwYS5hc3NlcnRpb25zL2MycGEuaW5ncmVkaWVudC52M2RoYXNoWCCuQCh6VqgOZ9fl7+9AFm2LBAkuWXRzV8r+LnTyOAU/IaJjdXJseCpzZWxmI2p1bWJmPWMycGEuYXNzZXJ0aW9ucy9jMnBhLmFjdGlvbnMudjJkaGFzaFgg5fVCbGGiJ8iODeXHtgqDfvWC5JyyEPhnRjgWzXsf2B+iY3VybHgpc2VsZiNqdW1iZj1jMnBhLmFzc2VydGlvbnMvYzJwYS5oYXNoLmRhdGFkaGFzaFgggdQ5vNRK8tP37LNp335AIghx3e6ThmO3Owhcx965bYl0Y2xhaW1fZ2VuZXJhdG9yX2luZm+jZG5hbWVvQW50aHJvcGljIEZpbGVzZ3ZlcnNpb25lMS4wLjBrc3BlY1ZlcnNpb25lMi40LjAAABA4anVtYgAAAChqdW1kYzJjcwARABCAAACqADibcQNjMnBhLnNpZ25hdHVyZQAAABAIY2JvctKEWQISogEmGCFZAgowggIGMIIBjaADAgECAhRA5aAK7sI50L64g/oGQgU9Z1UTADAKBggqhkjOPQQDAzBJMRcwFQYDVQQKEw5BbnRocm9waWMsIFBCQzEuMCwGA1UEAxMlQW50aHJvcGljIENvbnRlbnQgQ3JlZGVudGlhbHMgUm9vdCBDQTAeFw0yNjA4MDcxODQzNTZaFw0yODA4MDYxOTQzNTZaMEQxFzAVBgNVBAoTDkFudGhyb3BpYywgUEJDMSkwJwYDVQQDEyBBbnRocm9waWMgQ2xhdWRlIENvbnRlbnQgU2lnbmluZzBZMBMGByqGSM49AgEGCCqGSM49AwEHA0IABJh6CmvLUBgFFNU0vUKlOVtE6djd17L5SuwX0LemFisBM3dkd/3cyjxFA3Qo5S46fX0/ihY0VZ7mfb9KF703t5OjWDBWMA4GA1UdDwEB/wQEAwIHgDAVBgNVHSUEDjAMBgorBgEEAYPoXgIBMAwGA1UdEwEB/wQCMAAwHwYDVR0jBBgwFoAUzlHiBIFOZFsj+OPEz5o+nMHXXMIwCgYIKoZIzj0EAwMDZwAwZAIwMXMdFJ4BetLLVY7ORuE9noqbbAZOZn/aArXyTwFAZfKrPzxF2vPoJNf1+UCdg1XGAjBwX1zd9WGqYkqmL5SFqw1QySjr1zJfpJM9+1rdDwSPLMOPOjKuiXjoU/pUUeG9RwmhY3BhZFkNngAAAAAAAAAAAAAAAAAAAAAAAAAAAAAAAAAAAAAAAAAAAAAAAAAAAAAAAAAAAAAAAAAAAAAAAAAAAAAAAAAAAAAAAAAAAAAAAAAAAAAAAAAAAAAAAAAAAAAAAAAAAAAAAAAAAAAAAAAAAAAAAAAAAAAAAAAAAAAAAAAAAAAAAAAAAAAAAAAAAAAAAAAAAAAAAAAAAAAAAAAAAAAAAAAAAAAAAAAAAAAAAAAAAAAAAAAAAAAAAAAAAAAAAAAAAAAAAAAAAAAAAAAAAAAAAAAAAAAAAAAAAAAAAAAAAAAAAAAAAAAAAAAAAAAAAAAAAAAAAAAAAAAAAAAAAAAAAAAAAAAAAAAAAAAAAAAAAAAAAAAAAAAAAAAAAAAAAAAAAAAAAAAAAAAAAAAAAAAAAAAAAAAAAAAAAAAAAAAAAAAAAAAAAAAAAAAAAAAAAAAAAAAAAAAAAAAAAAAAAAAAAAAAAAAAAAAAAAAAAAAAAAAAAAAAAAAAAAAAAAAAAAAAAAAAAAAAAAAAAAAAAAAAAAAAAAAAAAAAAAAAAAAAAAAAAAAAAAAAAAAAAAAAAAAAAAAAAAAAAAAAAAAAAAAAAAAAAAAAAAAAAAAAAAAAAAAAAAAAAAAAAAAAAAAAAAAAAAAAAAAAAAAAAAAAAAAAAAAAAAAAAAAAAAAAAAAAAAAAAAAAAAAAAAAAAAAAAAAAAAAAAAAAAAAAAAAAAAAAAAAAAAAAAAAAAAAAAAAAAAAAAAAAAAAAAAAAAAAAAAAAAAAAAAAAAAAAAAAAAAAAAAAAAAAAAAAAAAAAAAAAAAAAAAAAAAAAAAAAAAAAAAAAAAAAAAAAAAAAAAAAAAAAAAAAAAAAAAAAAAAAAAAAAAAAAAAAAAAAAAAAAAAAAAAAAAAAAAAAAAAAAAAAAAAAAAAAAAAAAAAAAAAAAAAAAAAAAAAAAAAAAAAAAAAAAAAAAAAAAAAAAAAAAAAAAAAAAAAAAAAAAAAAAAAAAAAAAAAAAAAAAAAAAAAAAAAAAAAAAAAAAAAAAAAAAAAAAAAAAAAAAAAAAAAAAAAAAAAAAAAAAAAAAAAAAAAAAAAAAAAAAAAAAAAAAAAAAAAAAAAAAAAAAAAAAAAAAAAAAAAAAAAAAAAAAAAAAAAAAAAAAAAAAAAAAAAAAAAAAAAAAAAAAAAAAAAAAAAAAAAAAAAAAAAAAAAAAAAAAAAAAAAAAAAAAAAAAAAAAAAAAAAAAAAAAAAAAAAAAAAAAAAAAAAAAAAAAAAAAAAAAAAAAAAAAAAAAAAAAAAAAAAAAAAAAAAAAAAAAAAAAAAAAAAAAAAAAAAAAAAAAAAAAAAAAAAAAAAAAAAAAAAAAAAAAAAAAAAAAAAAAAAAAAAAAAAAAAAAAAAAAAAAAAAAAAAAAAAAAAAAAAAAAAAAAAAAAAAAAAAAAAAAAAAAAAAAAAAAAAAAAAAAAAAAAAAAAAAAAAAAAAAAAAAAAAAAAAAAAAAAAAAAAAAAAAAAAAAAAAAAAAAAAAAAAAAAAAAAAAAAAAAAAAAAAAAAAAAAAAAAAAAAAAAAAAAAAAAAAAAAAAAAAAAAAAAAAAAAAAAAAAAAAAAAAAAAAAAAAAAAAAAAAAAAAAAAAAAAAAAAAAAAAAAAAAAAAAAAAAAAAAAAAAAAAAAAAAAAAAAAAAAAAAAAAAAAAAAAAAAAAAAAAAAAAAAAAAAAAAAAAAAAAAAAAAAAAAAAAAAAAAAAAAAAAAAAAAAAAAAAAAAAAAAAAAAAAAAAAAAAAAAAAAAAAAAAAAAAAAAAAAAAAAAAAAAAAAAAAAAAAAAAAAAAAAAAAAAAAAAAAAAAAAAAAAAAAAAAAAAAAAAAAAAAAAAAAAAAAAAAAAAAAAAAAAAAAAAAAAAAAAAAAAAAAAAAAAAAAAAAAAAAAAAAAAAAAAAAAAAAAAAAAAAAAAAAAAAAAAAAAAAAAAAAAAAAAAAAAAAAAAAAAAAAAAAAAAAAAAAAAAAAAAAAAAAAAAAAAAAAAAAAAAAAAAAAAAAAAAAAAAAAAAAAAAAAAAAAAAAAAAAAAAAAAAAAAAAAAAAAAAAAAAAAAAAAAAAAAAAAAAAAAAAAAAAAAAAAAAAAAAAAAAAAAAAAAAAAAAAAAAAAAAAAAAAAAAAAAAAAAAAAAAAAAAAAAAAAAAAAAAAAAAAAAAAAAAAAAAAAAAAAAAAAAAAAAAAAAAAAAAAAAAAAAAAAAAAAAAAAAAAAAAAAAAAAAAAAAAAAAAAAAAAAAAAAAAAAAAAAAAAAAAAAAAAAAAAAAAAAAAAAAAAAAAAAAAAAAAAAAAAAAAAAAAAAAAAAAAAAAAAAAAAAAAAAAAAAAAAAAAAAAAAAAAAAAAAAAAAAAAAAAAAAAAAAAAAAAAAAAAAAAAAAAAAAAAAAAAAAAAAAAAAAAAAAAAAAAAAAAAAAAAAAAAAAAAAAAAAAAAAAAAAAAAAAAAAAAAAAAAAAAAAAAAAAAAAAAAAAAAAAAAAAAAAAAAAAAAAAAAAAAAAAAAAAAAAAAAAAAAAAAAAAAAAAAAAAAAAAAAAAAAAAAAAAAAAAAAAAAAAAAAAAAAAAAAAAAAAAAAAAAAAAAAAAAAAAAAAAAAAAAAAAAAAAAAAAAAAAAAAAAAAAAAAAAAAAAAAAAAAAAAAAAAAAAAAAAAAAAAAAAAAAAAAAAAAAAAAAAAAAAAAAAAAAAAAAAAAAAAAAAAAAAAAAAAAAAAAAAAAAAAAAAAAAAAAAAAAAAAAAAAAAAAAAAAAAAAAAAAAAAAAAAAAAAAAAAAAAAAAAAAAAAAAAAAAAAAAAAAAAAAAAAAAAAAAAAAAAAAAAAAAAAAAAAAAAAAAAAAAAAAAAAAAAAAAAAAAAAAAAAAAAAAAAAAAAAAAAAAAAAAAAAAAAAAAAAAAAAAAAAAAAAAAAAAAAAAAAAAAAAAAAAAAAAAAAAAAAAAAAAAAAAAAAAAAAAAAAAAAAAAAAAAAAAAAAAAAAAAAAAAAAAAAAAAAAAAAAAAAAAAAAAAAAAAAAAAAAAAAAAAAAAAAAAAAAAAAAAAAAAAAAAAAAAAAAAAAAAAAAAAAAAAAAAAAAAAAAAAAAAAAAAAAAAAAAAAAAAAAAAAAAAAAAAAAAAAAAAAAAAAAAAAAAAAAAAAAAAAAAAAAAAAAAAAAAAAAAAAAAAAAAAAAAAAAAAAAAAAAAAAAAAAAAAAAAAAAAAAAAAAAAAAAAAAAAAAAAAAAAAAAAAAAAAAAAAAAAAAAAAAAAAAAAAAAAAAAAAAAAAAAAAAAAAAAAAAAAAAAAAAAAAAAAAAAAAAAAAAAAAAAAAAAAAAAAAAAAAAAAAAAAAAAAAAAAAAAAAAAAAAAAAAAAAAAAAAAAAAAAAAAAAAAAAAAAAAAAAAAAAAAAAAAAAAAAAAAAAAAAAAAAAAAAAAAAAAAAAAAAAAAAAAAAAAAAAAAAAAAAAAAAAAAAAAAAAAAAAAAAAAAAAAAAAAAAAAAAAAAAAAAAAAAAAAAAAAAAAAAAAAAAAAAAAAAAAAAAAAAAAAAAAAAAAAAAAAAAAAAAAAAAAAAAAAAAAAAAAAAAAAAAAAAAAAAAAAAAAAAAAAAAAAAAAAAAAAAAAAAAAAAAAAAAAAAAAAAAAAAAAAAAAAAAAAAAAAAAAAAAAAAAAAAAAAAAAAAAAAAAAAAAAAAAAAAAAAAAAAAAAAAAAAAAAAAAAAAAAAAAAAAAAAAAAAAAAAAAAAAAAAAAAAAAAAAAAAAAAAAAAAAAAAAAAAAAAAAAAAAAAAAAAAAAAAAAAAAAAAAAAAAAAAAAAAAAAAAAAAAAAAAAAAAAAAAAAAAAAAAAAAAAAAAAAAAAAAAAAAAAAAAAAAAAAAAAAAAAAAAAAAAAAAAAAAAAAAAAAAAAAAAAAAAAAAAAAAAAAAAAAAAAAAAAAAAAAAAAAAAAAAAAAAAAAAAAAAAAAAAAAAAAAAAAAAAAAAAAAAAAAAAAAAAAAAAAAAAAAAAAAAAAAAAAAAAAAAAAAAAAAAAAAAAAAAAAAAAAAAAAAAAAAAAAAAAAAAAAAAAAAAAAAAAAAAAAAAAAAAAAAAAAAAAAAAAAAAAAAAAAAAAAAAAAAAAAAAAAAAAAAAAAAAAAAAAAAAAAAAAAAAAAAAAAAAAAAAAAAAAAAAAAAAAAAAAAAAAAAAAAAAAAAAAAAAAAAAAAAAAAAAAAAAAAAAAAAAAAAAAAAAAAAAAAAAAAAAAAAAAAAAAAAAAAAAAAAAAAAAAAAAAAAAAAAAAAAAAAAAAAAAAAAAAAAAAAAAAAAAAAAAAAAAAAAAAAAAAAAAAAAAAAAAAAAAAAAAAAAAAAAAAAAAAAAAAAAAAAAAAAAAAAAAAAAAAAAAAAAAAAAAAAAAAAAAAAAAAAAAAAAAAAAAAAAAAAAAAAAAAAAAAAAAAAAAAAAAAAAAAAAAAAAAAAAAAAAAAAAAAAAAAAAAAAAAAAAAAAAAAAAAAAAAAAAAAAAAAAAAAAAAAAAAAAAAAAAAAAAAAAAAAAAAAAAAAAAAAAAAAAAAAAAAAAAAAAAAAAAAAAAAAAAAAAAAAAAAAAAAAAAAAAAAAAAAAAAAAAAAAAAAAAAAAAAAAAAAAAAAAAAAAAAAAAAAAAAAAAAAAAAAAAAAAAAAAAAAAAAAAAAPZYQMeHDakfDKVKa53L3K8pj/s61ap2FekgumxXsaAML2D4VC3X4XxQCbv6ud8WATH+IN+zg7Afu83bQXx+PS4dUbg=</c2pa:manifest></metadata>
<defs>
  <linearGradient id="bg" x1="0" y1="0" x2="1" y2="1">
    <stop offset="0" stop-color="#19C2F2"/>
    <stop offset="0.48" stop-color="#4B3FEA"/>
    <stop offset="1" stop-color="#9B2FE0"/>
  </linearGradient>
  <radialGradient id="glowTL" cx="0.16" cy="0.10" r="0.62">
    <stop offset="0" stop-color="#FFFFFF" stop-opacity="0.42"/>
    <stop offset="1" stop-color="#FFFFFF" stop-opacity="0"/>
  </radialGradient>
  <radialGradient id="glowBR" cx="0.92" cy="0.96" r="0.55">
    <stop offset="0" stop-color="#FF4F9A" stop-opacity="0.55"/>
    <stop offset="1" stop-color="#FF4F9A" stop-opacity="0"/>
  </radialGradient>
  <linearGradient id="card" x1="0" y1="0" x2="0" y2="1">
    <stop offset="0" stop-color="#FFFFFF"/>
    <stop offset="1" stop-color="#E9E4FF"/>
  </linearGradient>
  <linearGradient id="check" x1="0" y1="0" x2="1" y2="1">
    <stop offset="0" stop-color="#1E9BF5"/>
    <stop offset="0.5" stop-color="#5B3FF0"/>
    <stop offset="1" stop-color="#E23C9A"/>
  </linearGradient>
  <filter id="cardShadow" x="-30%" y="-30%" width="160%" height="170%">
    <feDropShadow dx="0" dy="26" stdDeviation="30" flood-color="#1A0B5C" flood-opacity="0.45"/>
  </filter>
  <filter id="iconShadow" x="-20%" y="-20%" width="140%" height="150%">
    <feDropShadow dx="0" dy="14" stdDeviation="16" flood-color="#000" flood-opacity="0.35"/>
  </filter>
</defs>

<defs>
  <linearGradient id="bgd" x1="0" y1="0" x2="1" y2="1">
    <stop offset="0" stop-color="#0B0A26"/><stop offset="0.55" stop-color="#171049"/><stop offset="1" stop-color="#2A1266"/>
  </linearGradient>
  <radialGradient id="auCyan" cx="0.5" cy="0.5" r="0.5"><stop offset="0" stop-color="#22C8F5" stop-opacity="0.55"/><stop offset="1" stop-color="#22C8F5" stop-opacity="0"/></radialGradient>
  <radialGradient id="auViolet" cx="0.5" cy="0.5" r="0.5"><stop offset="0" stop-color="#8B3DFF" stop-opacity="0.60"/><stop offset="1" stop-color="#8B3DFF" stop-opacity="0"/></radialGradient>
  <radialGradient id="auPink" cx="0.5" cy="0.5" r="0.5"><stop offset="0" stop-color="#FF4F9A" stop-opacity="0.45"/><stop offset="1" stop-color="#FF4F9A" stop-opacity="0"/></radialGradient>
  <linearGradient id="brand" x1="0" y1="0" x2="1" y2="1"><stop offset="0" stop-color="#22C8F5"/><stop offset="0.5" stop-color="#6A4CFF"/><stop offset="1" stop-color="#FF4F9A"/></linearGradient>
  <linearGradient id="glass" x1="0" y1="0" x2="1" y2="1"><stop offset="0" stop-color="#FFFFFF" stop-opacity="0.16"/><stop offset="1" stop-color="#FFFFFF" stop-opacity="0.05"/></linearGradient>
  <linearGradient id="glassStroke" x1="0" y1="0" x2="1" y2="1"><stop offset="0" stop-color="#FFFFFF" stop-opacity="0.55"/><stop offset="0.5" stop-color="#9FB4FF" stop-opacity="0.22"/><stop offset="1" stop-color="#C58BFF" stop-opacity="0.35"/></linearGradient>
  <linearGradient id="okGreen" x1="0" y1="0" x2="1" y2="1"><stop offset="0" stop-color="#3DE0A8"/><stop offset="1" stop-color="#12A774"/></linearGradient>
  <filter id="soft" filterUnits="userSpaceOnUse" x="-600" y="-600" width="3200" height="2600"><feDropShadow dx="0" dy="18" stdDeviation="22" flood-color="#04021A" flood-opacity="0.55"/></filter>
  <filter id="glow" filterUnits="userSpaceOnUse" x="-600" y="-600" width="3200" height="2600"><feGaussianBlur stdDeviation="14"/></filter>
  <filter id="glowS" filterUnits="userSpaceOnUse" x="-600" y="-600" width="3200" height="2600"><feGaussianBlur stdDeviation="6"/></filter>
  <pattern id="dots" width="36" height="36" patternUnits="userSpaceOnUse"><circle cx="2" cy="2" r="1.6" fill="#FFFFFF" fill-opacity="0.10"/></pattern>
</defs>
<rect width="1200" height="800" fill="url(#bgd)"/><circle cx="210" cy="200" r="400" fill="url(#auViolet)"/><circle cx="980" cy="620" r="430" fill="url(#auCyan)"/><circle cx="620" cy="760" r="330" fill="url(#auPink)"/><rect width="1200" height="800" fill="url(#dots)"/><g filter="url(#soft)"><rect x="84" y="300" width="300" height="250" rx="34" fill="url(#glass)" stroke="url(#glassStroke)" stroke-width="2.5" /></g><path d="M108,300 H360 L384,352 H84 Z" fill="#FFFFFF" fill-opacity="0.10" stroke="url(#glassStroke)" stroke-width="2.5"/>
<g transform="rotate(-8 174.0 410.0)" opacity="1.0" >
  <defs>
    <linearGradient id="u21" x1="0" y1="0" x2="0" y2="1"><stop offset="0" stop-color="#9CF5D0"/><stop offset="1" stop-color="#1FA9A6"/></linearGradient>
    <clipPath id="u22"><rect x="126" y="372" width="96" height="76" rx="10"/></clipPath>
  </defs>
  <rect x="120" y="366" width="108" height="88" rx="16" fill="#FFFFFF" fill-opacity="0.92"/>
  <g clip-path="url(#u22)">
    <rect x="126" y="372" width="96" height="76" fill="url(#u21)"/>
    <circle cx="67.19999999999999" cy="394.8" r="8.36" fill="#F4FFE0" fill-opacity="0.95"/>
    <path d="M126,448 L126,426.72 L150.96,403.92 L170.16,422.16 L185.51999999999998,410.0 L222,431.28 L222,448 Z" fill="#0F6E7C"/>
    <path d="M126,448 L126,437.36 L158.64,422.16 L183.6,437.36 L204.72,425.2 L222,435.84 L222,448 Z" fill="#0A505E"/>
  </g>
  <rect x="120" y="366" width="108" height="88" rx="16" fill="none" stroke="#FFFFFF" stroke-opacity="0.9" stroke-width="3"/>
</g>
<g transform="rotate(6 260.0 426.0)" opacity="1.0" >
  <defs>
    <linearGradient id="u23" x1="0" y1="0" x2="0" y2="1"><stop offset="0" stop-color="#FFC2D9"/><stop offset="1" stop-color="#7C5CFF"/></linearGradient>
    <clipPath id="u24"><rect x="212" y="388" width="96" height="76" rx="10"/></clipPath>
  </defs>
  <rect x="206" y="382" width="108" height="88" rx="16" fill="#FFFFFF" fill-opacity="0.92"/>
  <g clip-path="url(#u24)">
    <rect x="212" y="388" width="96" height="76" fill="url(#u23)"/>
    <circle cx="67.19999999999999" cy="410.8" r="8.36" fill="#FFF3F8" fill-opacity="0.95"/>
    <path d="M212,464 L212,442.72 L236.96,419.92 L256.16,438.16 L271.52,426.0 L308,447.28 L308,464 Z" fill="#5B3AB8"/>
    <path d="M212,464 L212,453.36 L244.64,438.16 L269.6,453.36 L290.72,441.2 L308,451.84 L308,464 Z" fill="#3F2891"/>
  </g>
  <rect x="206" y="382" width="108" height="88" rx="16" fill="none" stroke="#FFFFFF" stroke-opacity="0.9" stroke-width="3"/>
</g><rect x="176" y="500" width="96" height="14" rx="7" fill="#FFFFFF" fill-opacity="0.28"/><circle cx="600" cy="400" r="176" fill="#7A5CFF" fill-opacity="0.22" filter="url(#glow)"/><circle cx="600" cy="400" r="150" fill="none" stroke="#FFFFFF" stroke-opacity="0.12" stroke-width="22"/><g><path d="M459.0,348.7 A150,150 0 1 1 548.7,541.0" fill="none" stroke="url(#brand)" stroke-width="22" stroke-linecap="round"/>
<path d="M537.1,572.9 L524.3,532.1 L560.3,509.0 Z" fill="#B26BFF" stroke="#B26BFF" stroke-width="10" stroke-linejoin="round"/></g>
<g transform="rotate(-3 600.0 402.0)" opacity="1.0" filter="url(#soft)">
  <defs>
    <linearGradient id="u25" x1="0" y1="0" x2="0" y2="1"><stop offset="0" stop-color="#FFB07A"/><stop offset="1" stop-color="#B04BFF"/></linearGradient>
    <clipPath id="u26"><rect x="520" y="340" width="160" height="124" rx="14"/></clipPath>
  </defs>
  <rect x="514" y="334" width="172" height="136" rx="20" fill="#FFFFFF" fill-opacity="0.92"/>
  <g clip-path="url(#u26)">
    <rect x="520" y="340" width="160" height="124" fill="url(#u25)"/>
    <circle cx="112.0" cy="377.2" r="13.64" fill="#FFE7A8" fill-opacity="0.95"/>
    <path d="M520,464 L520,429.28 L561.6,392.08 L593.6,421.84000000000003 L619.2,402.0 L680,436.72 L680,464 Z" fill="#4A2C96"/>
    <path d="M520,464 L520,446.64 L574.4,421.84000000000003 L616.0,446.64 L651.2,426.8 L680,444.15999999999997 L680,464 Z" fill="#2E1E78"/>
  </g>
  <rect x="514" y="334" width="172" height="136" rx="20" fill="none" stroke="#FFFFFF" stroke-opacity="0.9" stroke-width="3"/>
</g><g stroke="#FFFFFF" stroke-opacity="0.25" stroke-width="4" stroke-linecap="round"><line x1="796.0" y1="400.0" x2="808.0" y2="400.0"/><line x1="769.7" y1="498.0" x2="780.1" y2="504.0"/><line x1="698.0" y1="569.7" x2="704.0" y2="580.1"/><line x1="600.0" y1="596.0" x2="600.0" y2="608.0"/><line x1="502.0" y1="569.7" x2="496.0" y2="580.1"/><line x1="430.3" y1="498.0" x2="419.9" y2="504.0"/><line x1="404.0" y1="400.0" x2="392.0" y2="400.0"/><line x1="430.3" y1="302.0" x2="419.9" y2="296.0"/><line x1="502.0" y1="230.3" x2="496.0" y2="219.9"/><line x1="600.0" y1="204.0" x2="600.0" y2="192.0"/><line x1="698.0" y1="230.3" x2="704.0" y2="219.9"/><line x1="769.7" y1="302.0" x2="780.1" y2="296.0"/></g><g filter="url(#soft)"><rect x="816" y="300" width="300" height="250" rx="34" fill="url(#glass)" stroke="url(#glassStroke)" stroke-width="2.5" /></g><path d="M840,300 H930 L960,334 H1092 Q1116,334 1116,358 V300" fill="none"/>
<g transform="rotate(-6 914.0 410.0)" opacity="1.0" >
  <defs>
    <linearGradient id="u27" x1="0" y1="0" x2="0" y2="1"><stop offset="0" stop-color="#FFB07A"/><stop offset="1" stop-color="#B04BFF"/></linearGradient>
    <clipPath id="u28"><rect x="866" y="372" width="96" height="76" rx="10"/></clipPath>
  </defs>
  <rect x="860" y="366" width="108" height="88" rx="16" fill="#FFFFFF" fill-opacity="0.92"/>
  <g clip-path="url(#u28)">
    <rect x="866" y="372" width="96" height="76" fill="url(#u27)"/>
    <circle cx="67.19999999999999" cy="394.8" r="8.36" fill="#FFE7A8" fill-opacity="0.95"/>
    <path d="M866,448 L866,426.72 L890.96,403.92 L910.16,422.16 L925.52,410.0 L962,431.28 L962,448 Z" fill="#4A2C96"/>
    <path d="M866,448 L866,437.36 L898.64,422.16 L923.6,437.36 L944.72,425.2 L962,435.84 L962,448 Z" fill="#2E1E78"/>
  </g>
  <rect x="860" y="366" width="108" height="88" rx="16" fill="none" stroke="#FFFFFF" stroke-opacity="0.9" stroke-width="3"/>
</g>
<g transform="rotate(5 1014.0 410.0)" opacity="1.0" >
  <defs>
    <linearGradient id="u29" x1="0" y1="0" x2="0" y2="1"><stop offset="0" stop-color="#86E3FF"/><stop offset="1" stop-color="#2F7BEA"/></linearGradient>
    <clipPath id="u30"><rect x="966" y="372" width="96" height="76" rx="10"/></clipPath>
  </defs>
  <rect x="960" y="366" width="108" height="88" rx="16" fill="#FFFFFF" fill-opacity="0.92"/>
  <g clip-path="url(#u30)">
    <rect x="966" y="372" width="96" height="76" fill="url(#u29)"/>
    <circle cx="67.19999999999999" cy="394.8" r="8.36" fill="#FFFFFF" fill-opacity="0.95"/>
    <path d="M966,448 L966,426.72 L990.96,403.92 L1010.16,422.16 L1025.52,410.0 L1062,431.28 L1062,448 Z" fill="#1E4FA6"/>
    <path d="M966,448 L966,437.36 L998.64,422.16 L1023.6,437.36 L1044.72,425.2 L1062,435.84 L1062,448 Z" fill="#143A85"/>
  </g>
  <rect x="960" y="366" width="108" height="88" rx="16" fill="none" stroke="#FFFFFF" stroke-opacity="0.9" stroke-width="3"/>
</g>
<g transform="rotate(-2 964.0 478.0)" opacity="1.0" >
  <defs>
    <linearGradient id="u31" x1="0" y1="0" x2="0" y2="1"><stop offset="0" stop-color="#9CF5D0"/><stop offset="1" stop-color="#1FA9A6"/></linearGradient>
    <clipPath id="u32"><rect x="916" y="440" width="96" height="76" rx="10"/></clipPath>
  </defs>
  <rect x="910" y="434" width="108" height="88" rx="16" fill="#FFFFFF" fill-opacity="0.92"/>
  <g clip-path="url(#u32)">
    <rect x="916" y="440" width="96" height="76" fill="url(#u31)"/>
    <circle cx="67.19999999999999" cy="462.8" r="8.36" fill="#F4FFE0" fill-opacity="0.95"/>
    <path d="M916,516 L916,494.72 L940.96,471.92 L960.16,490.16 L975.52,478.0 L1012,499.28 L1012,516 Z" fill="#0F6E7C"/>
    <path d="M916,516 L916,505.36 L948.64,490.16 L973.6,505.36 L994.72,493.2 L1012,503.84 L1012,516 Z" fill="#0A505E"/>
  </g>
  <rect x="910" y="434" width="108" height="88" rx="16" fill="none" stroke="#FFFFFF" stroke-opacity="0.9" stroke-width="3"/>
</g><g filter="url(#soft)"><circle cx="1090" cy="322" r="34" fill="url(#okGreen)"/>
<circle cx="1090" cy="322" r="34" fill="none" stroke="#FFFFFF" stroke-opacity="0.85" stroke-width="4"/>
<path d="M1075.72,322.68 L1086.6,333.56 L1105.64,311.12" fill="none" stroke="#fff" stroke-width="8.16" stroke-linecap="round" stroke-linejoin="round"/></g><path d="M392,420 C450,420 470,410 428,400" stroke="none" fill="none"/><path d="M392,430 C432,430 440,430 452,428" stroke="#FFFFFF" stroke-opacity="0.45" stroke-width="5" stroke-dasharray="2 14" stroke-linecap="round" fill="none"/><path d="M752,420 C790,420 800,426 808,428" stroke="#FFFFFF" stroke-opacity="0.45" stroke-width="5" stroke-dasharray="2 14" stroke-linecap="round" fill="none"/><line x1="200" y1="680" x2="1000" y2="680" stroke="#FFFFFF" stroke-opacity="0.18" stroke-width="6" stroke-linecap="round"/><circle cx="200" cy="680" r="9" fill="#FFFFFF" fill-opacity="0.45" /><circle cx="400" cy="680" r="9" fill="#FFFFFF" fill-opacity="0.45" /><circle cx="600" cy="680" r="16" fill="url(#brand)" fill-opacity="1" stroke="#fff" stroke-width="4"/><circle cx="800" cy="680" r="9" fill="#FFFFFF" fill-opacity="0.45" /><circle cx="1000" cy="680" r="9" fill="#FFFFFF" fill-opacity="0.45" /></svg>